{
	"asset":{
		"generator":"Khronos glTF Blender I/O v3.6.27",
		"version":"2.0"
	},
	"scene":0,
	"scenes":[
		{
			"name":"Scene",
			"nodes":[
				0
			]
		}
	],
	"nodes":[
		{
			"mesh":0,
			"name":"Texto"
		}
	],
	"meshes":[
		{
			"name":"Texto",
			"primitives":[
				{
					"attributes":{
						"POSITION":0,
						"NORMAL":1,
						"TEXCOORD_0":2
					},
					"indices":3
				}
			]
		}
	],
	"accessors":[
		{
			"bufferView":0,
			"componentType":5126,
			"count":4772,
			"max":[
				7.999183654785156,
				0.07000000029802322,
				0.01588594727218151
			],
			"min":[
				0.038289204239845276,
				-0.07000000029802322,
				-0.5947046875953674
			],
			"type":"VEC3"
		},
		{
			"bufferView":1,
			"componentType":5126,
			"count":4772,
			"type":"VEC3"
		},
		{
			"bufferView":2,
			"componentType":5126,
			"count":4772,
			"type":"VEC2"
		},
		{
			"bufferView":3,
			"componentType":5123,
			"count":14052,
			"type":"SCALAR"
		}
	],
	"bufferViews":[
		{
			"buffer":0,
			"byteLength":57264,
			"byteOffset":0,
			"target":34962
		},
		{
			"buffer":0,
			"byteLength":57264,
			"byteOffset":57264,
			"target":34962
		},
		{
			"buffer":0,
			"byteLength":38176,
			"byteOffset":114528,
			"target":34962
		},
		{
			"buffer":0,
			"byteLength":28104,
			"byteOffset":152704,
			"target":34963
		}
	],
	"buffers":[
		{
			"byteLength":180808,
			"uri":"data:application/octet-stream;base64,"
		}
	]
}
