{
	"asset":{
		"generator":"Khronos glTF Blender I/O v3.6.27",
		"version":"2.0"
	},
	"extensionsUsed":[
		"KHR_materials_specular",
		"KHR_materials_ior"
	],
	"scene":0,
	"scenes":[
		{
			"name":"Scene",
			"nodes":[
				0
			]
		}
	],
	"nodes":[
		{
			"mesh":0,
			"name":"Texto",
			"rotation":[
				0.5553910136222839,
				-0.4376537799835205,
				0.4376538097858429,
				0.5553910732269287
			],
			"scale":[
				0.30000001192092896,
				0.30000001192092896,
				0.30000001192092896
			]
		}
	],
	"materials":[
		{
			"doubleSided":true,
			"extensions":{
				"KHR_materials_specular":{
					"specularColorFactor":[
						0,
						0,
						0
					]
				},
				"KHR_materials_ior":{
					"ior":1.4500000476837158
				}
			},
			"name":"Material",
			"pbrMetallicRoughness":{
				"baseColorFactor":[
					0.800000011920929,
					0.800000011920929,
					0.800000011920929,
					1
				],
				"metallicFactor":0,
				"roughnessFactor":0.5826771855354309
			}
		}
	],
	"meshes":[
		{
			"name":"Texto",
			"primitives":[
				{
					"attributes":{
						"POSITION":0,
						"NORMAL":1,
						"TEXCOORD_0":2,
						"TANGENT":3
					},
					"indices":4,
					"material":0
				}
			]
		}
	],
	"accessors":[
		{
			"bufferView":0,
			"componentType":5126,
			"count":8582,
			"max":[
				2.541879177093506,
				-0.09069620817899704,
				0.015886107459664345
			],
			"min":[
				-3.3310744762420654,
				-3.4115116596221924,
				-0.5947046875953674
			],
			"type":"VEC3"
		},
		{
			"bufferView":1,
			"componentType":5126,
			"count":8582,
			"type":"VEC3"
		},
		{
			"bufferView":2,
			"componentType":5126,
			"count":8582,
			"type":"VEC2"
		},
		{
			"bufferView":3,
			"componentType":5126,
			"count":8582,
			"type":"VEC4"
		},
		{
			"bufferView":4,
			"componentType":5123,
			"count":14052,
			"type":"SCALAR"
		}
	],
	"bufferViews":[
		{
			"buffer":0,
			"byteLength":102984,
			"byteOffset":0,
			"target":34962
		},
		{
			"buffer":0,
			"byteLength":102984,
			"byteOffset":102984,
			"target":34962
		},
		{
			"buffer":0,
			"byteLength":68656,
			"byteOffset":205968,
			"target":34962
		},
		{
			"buffer":0,
			"byteLength":137312,
			"byteOffset":274624,
			"target":34962
		},
		{
			"buffer":0,
			"byteLength":28104,
			"byteOffset":411936,
			"target":34963
		}
	],
	"buffers":[
		{
			"byteLength":440040,
			"uri":"data:application/octet-stream;base64,"
		}
	]
}
