{
	"asset":{
		"generator":"Khronos glTF Blender I/O v3.6.27",
		"version":"2.0"
	},
	"scene":0,
	"scenes":[
		{
			"name":"Scene",
			"nodes":[
				0
			]
		}
	],
	"nodes":[
		{
			"mesh":0,
			"name":"Texto",
			"rotation":[
				0.70126873254776,
				-0.09067601710557938,
				0.09067601710557938,
				0.7012687921524048
			],
			"scale":[
				0.5,
				1,
				0.5
			]
		}
	],
	"materials":[
		{
			"doubleSided":true,
			"name":"Material.001",
			"pbrMetallicRoughness":{
				"baseColorFactor":[
					0.800000011920929,
					0.800000011920929,
					0.800000011920929,
					1
				],
				"metallicFactor":0.40136054158210754,
				"roughnessFactor":0.4000000059604645
			}
		}
	],
	"meshes":[
		{
			"name":"Texto",
			"primitives":[
				{
					"attributes":{
						"POSITION":0,
						"NORMAL":1,
						"TEXCOORD_0":2,
						"TANGENT":3
					},
					"indices":4,
					"material":0
				}
			]
		}
	],
	"accessors":[
		{
			"bufferView":0,
			"componentType":5126,
			"count":8033,
			"max":[
				2.716959238052368,
				-0.746683657169342,
				0.015886155888438225
			],
			"min":[
				-4.04753303527832,
				-2.2198240756988525,
				-0.5947047472000122
			],
			"type":"VEC3"
		},
		{
			"bufferView":1,
			"componentType":5126,
			"count":8033,
			"type":"VEC3"
		},
		{
			"bufferView":2,
			"componentType":5126,
			"count":8033,
			"type":"VEC2"
		},
		{
			"bufferView":3,
			"componentType":5126,
			"count":8033,
			"type":"VEC4"
		},
		{
			"bufferView":4,
			"componentType":5123,
			"count":14052,
			"type":"SCALAR"
		}
	],
	"bufferViews":[
		{
			"buffer":0,
			"byteLength":96396,
			"byteOffset":0,
			"target":34962
		},
		{
			"buffer":0,
			"byteLength":96396,
			"byteOffset":96396,
			"target":34962
		},
		{
			"buffer":0,
			"byteLength":64264,
			"byteOffset":192792,
			"target":34962
		},
		{
			"buffer":0,
			"byteLength":128528,
			"byteOffset":257056,
			"target":34962
		},
		{
			"buffer":0,
			"byteLength":28104,
			"byteOffset":385584,
			"target":34963
		}
	],
	"buffers":[
		{
			"byteLength":413688,
			"uri":"data:application/octet-stream;base64,"
		}
	]
}
