{
	"asset":{
		"generator":"Khronos glTF Blender I/O v3.6.27",
		"version":"2.0"
	},
	"scene":0,
	"scenes":[
		{
			"name":"Scene",
			"nodes":[
				0
			]
		}
	],
	"nodes":[
		{
			"mesh":0,
			"name":"Texto",
			"rotation":[
				0.70126873254776,
				-0.09067601710557938,
				0.09067601710557938,
				0.7012687921524048
			]
		}
	],
	"animations":[
		{
			"channels":[
				{
					"sampler":0,
					"target":{
						"node":0,
						"path":"translation"
					}
				},
				{
					"sampler":1,
					"target":{
						"node":0,
						"path":"rotation"
					}
				},
				{
					"sampler":2,
					"target":{
						"node":0,
						"path":"scale"
					}
				}
			],
			"name":"TextoAction.004",
			"samplers":[
				{
					"input":5,
					"interpolation":"STEP",
					"output":6
				},
				{
					"input":7,
					"interpolation":"LINEAR",
					"output":8
				},
				{
					"input":7,
					"interpolation":"LINEAR",
					"output":9
				}
			]
		}
	],
	"materials":[
		{
			"doubleSided":true,
			"name":"Material.001",
			"pbrMetallicRoughness":{
				"baseColorFactor":[
					0.948628306388855,
					0.934217095375061,
					1,
					1
				],
				"metallicFactor":0.557823121547699,
				"roughnessFactor":0.6721088886260986
			}
		}
	],
	"meshes":[
		{
			"name":"Texto",
			"primitives":[
				{
					"attributes":{
						"POSITION":0,
						"NORMAL":1,
						"TEXCOORD_0":2,
						"TANGENT":3
					},
					"indices":4,
					"material":0
				}
			]
		}
	],
	"accessors":[
		{
			"bufferView":0,
			"componentType":5126,
			"count":8456,
			"max":[
				2.584880828857422,
				-0.4540293216705322,
				0.015886113047599792
			],
			"min":[
				-3.5397934913635254,
				-3.651063919067383,
				-0.5947047472000122
			],
			"type":"VEC3"
		},
		{
			"bufferView":1,
			"componentType":5126,
			"count":8456,
			"type":"VEC3"
		},
		{
			"bufferView":2,
			"componentType":5126,
			"count":8456,
			"type":"VEC2"
		},
		{
			"bufferView":3,
			"componentType":5126,
			"count":8456,
			"type":"VEC4"
		},
		{
			"bufferView":4,
			"componentType":5123,
			"count":14052,
			"type":"SCALAR"
		},
		{
			"bufferView":5,
			"componentType":5126,
			"count":2,
			"max":[
				11.083333333333334
			],
			"min":[
				0
			],
			"type":"SCALAR"
		},
		{
			"bufferView":6,
			"componentType":5126,
			"count":2,
			"type":"VEC3"
		},
		{
			"bufferView":7,
			"componentType":5126,
			"count":267,
			"max":[
				11.083333333333334
			],
			"min":[
				0
			],
			"type":"SCALAR"
		},
		{
			"bufferView":8,
			"componentType":5126,
			"count":267,
			"type":"VEC4"
		},
		{
			"bufferView":9,
			"componentType":5126,
			"count":267,
			"type":"VEC3"
		}
	],
	"bufferViews":[
		{
			"buffer":0,
			"byteLength":101472,
			"byteOffset":0,
			"target":34962
		},
		{
			"buffer":0,
			"byteLength":101472,
			"byteOffset":101472,
			"target":34962
		},
		{
			"buffer":0,
			"byteLength":67648,
			"byteOffset":202944,
			"target":34962
		},
		{
			"buffer":0,
			"byteLength":135296,
			"byteOffset":270592,
			"target":34962
		},
		{
			"buffer":0,
			"byteLength":28104,
			"byteOffset":405888,
			"target":34963
		},
		{
			"buffer":0,
			"byteLength":8,
			"byteOffset":433992
		},
		{
			"buffer":0,
			"byteLength":24,
			"byteOffset":434000
		},
		{
			"buffer":0,
			"byteLength":1068,
			"byteOffset":434024
		},
		{
			"buffer":0,
			"byteLength":4272,
			"byteOffset":435092
		},
		{
			"buffer":0,
			"byteLength":3204,
			"byteOffset":439364
		}
	],
	"buffers":[
		{
			"byteLength":442568,
			"uri":"data:application/octet-stream;base64,"
		}
	]
}
